<svg width="160" height="31" viewBox="0 0 160 31" fill="none" xmlns="http://www.w3.org/2000/svg">
<path fill-rule="evenodd" clip-rule="evenodd" d="M39.7602 4.61564V16.6591H38.5618V6.0684L31.7728 16.6591H30.5576V4.61564H31.756V14.6058L38.1215 4.61564H39.7602ZM42.2196 4.61564H43.418V9.91194H49.6242V4.61564H50.8226V16.6591H49.6242V11.0008H43.418V16.6591H42.2196V4.61564ZM54.9067 5.7045H52.1689V4.61564H58.8427V5.7045H56.105V16.6591H54.9067V5.7045ZM60.1835 4.61564H66.7298V5.7045H61.3828V10.042H66.5518V11.1318H61.3828V15.5693H66.7298V16.6591H60.1835V4.61564ZM77.0446 4.61564V16.6591H75.8462V5.7045H72.0854L69.0572 16.6591H67.7961L71.1971 4.61564H77.0446ZM87.6853 4.61564V16.6591H86.487V5.7045H82.7271L79.698 16.6591H78.4368L81.8388 4.61564H87.6853ZM90.1448 4.61564H96.6911V5.7045H91.3431V10.042H96.5122V11.1318H91.3431V15.5693H96.6911V16.6591H90.1448V4.61564ZM98.8236 4.61564H100.022V11.5419L105.545 4.61564H107.068L102.341 10.4851L107.068 16.6591H105.577L101.579 11.4439L100.022 13.3699V16.6591H98.8236V4.61564ZM110.841 5.7045H108.104V4.61564H114.777V5.7045H112.04V16.6591H110.841V5.7045ZM118.891 11.2157V12.3046H114.501V11.2157H118.891ZM124.724 4.61564H126.053L131.184 16.6591H129.889L128.155 12.6176H122.583L120.851 16.6591H119.555L124.724 4.61564ZM127.686 11.5278L125.388 6.00052L123.054 11.5278H127.686ZM132.59 4.61564H135.395C135.973 4.61564 136.478 4.65524 136.909 4.73254C137.343 4.81079 137.746 4.97765 138.116 5.22182C138.548 5.50559 138.893 5.87985 139.145 6.33991C139.397 6.80373 139.525 7.29396 139.525 7.81246C139.525 8.79008 139.083 9.59423 138.2 10.224C138.826 10.4766 139.31 10.8745 139.654 11.4062C140 11.9398 140.173 12.5573 140.173 13.2558C140.173 13.8045 140.039 14.3268 139.779 14.8226C139.517 15.3185 139.157 15.7182 138.697 16.0067C138.373 16.2104 138.033 16.3546 137.692 16.447C137.348 16.5403 137.008 16.5988 136.68 16.6186C136.352 16.6374 135.925 16.6591 135.411 16.6591H132.59V4.61564ZM135.266 15.5693C135.835 15.5693 136.32 15.5467 136.715 15.5071C137.11 15.4675 137.474 15.3704 137.792 15.2082C138.134 15.0348 138.413 14.7576 138.632 14.3937C138.85 14.0298 138.958 13.6546 138.958 13.269C138.958 12.7562 138.824 12.3074 138.559 11.9218C138.294 11.5382 137.931 11.2544 137.468 11.0988C136.975 10.9329 136.165 10.8575 135.055 10.8575H133.789V15.5693H135.266ZM135.088 9.7677C135.606 9.7677 136.041 9.74696 136.391 9.70548C136.739 9.66494 137.065 9.56501 137.358 9.40946C137.641 9.25956 137.877 9.02294 138.057 8.71183C138.238 8.3979 138.327 8.06794 138.327 7.72856C138.327 7.4052 138.237 7.08844 138.06 6.78299C137.883 6.47943 137.654 6.23432 137.374 6.06557C137.11 5.90719 136.8 5.8082 136.453 5.76672C136.109 5.72619 135.682 5.7045 135.184 5.7045H133.789V9.7677H135.088ZM143.217 5.7045H140.481V4.61564H147.153V5.7045H144.417V16.6591H143.217V5.7045ZM159.738 10.6124C159.738 11.7484 159.452 12.7977 158.882 13.7583C158.311 14.7218 157.537 15.4807 156.564 16.0369C155.592 16.5922 154.539 16.8703 153.408 16.8703C152.304 16.8703 151.264 16.5922 150.293 16.0426C149.32 15.491 148.541 14.7416 147.96 13.7932C147.38 12.8457 147.089 11.8134 147.089 10.6944C147.089 9.5537 147.375 8.50443 147.941 7.54661C148.508 6.58879 149.28 5.82989 150.253 5.27273C151.224 4.71652 152.277 4.43652 153.408 4.43652C154.52 4.43652 155.563 4.7118 156.537 5.26236C157.51 5.81292 158.289 6.56051 158.869 7.50796C159.449 8.45635 159.738 9.48865 159.738 10.6124ZM148.287 10.6944C148.287 11.6041 148.526 12.4441 148.997 13.2096C149.47 13.977 150.104 14.586 150.897 15.0376C151.691 15.4882 152.533 15.7135 153.424 15.7135C154.113 15.7135 154.769 15.5834 155.395 15.3195C156.021 15.0564 156.57 14.6907 157.042 14.2221C157.512 13.7555 157.883 13.2096 158.146 12.5903C158.408 11.9699 158.54 11.311 158.54 10.6124C158.54 9.7083 158.304 8.86738 157.835 8.09811C157.367 7.32978 156.736 6.71606 155.946 6.26732C155.156 5.81858 154.315 5.59326 153.424 5.59326C152.733 5.59326 152.073 5.7243 151.451 5.9845C150.825 6.24658 150.273 6.61613 149.799 7.0875C149.322 7.56169 148.948 8.10942 148.684 8.73069C148.421 9.34912 148.287 10.0043 148.287 10.6944Z" fill="#2B2A29"/>
<path fill-rule="evenodd" clip-rule="evenodd" d="M0 9.96378V22.6794C0 24.5969 0.841367 26.292 2.10529 27.262L18.348 2.18998V0L4.02601 22.0591V3.75209L0 9.96378Z" fill="#C6CC11"/>
<path fill-rule="evenodd" clip-rule="evenodd" d="M20.8538 21.0361V8.32043C20.8538 6.40291 20.0124 4.70787 18.7485 3.73779L2.50488 28.8099V30.9998L16.8278 8.94075V27.2478L20.8538 21.0361Z" fill="#0075B1"/>
<path fill-rule="evenodd" clip-rule="evenodd" d="M11.6787 22.3115C13.0026 22.3115 14.081 23.423 14.081 24.7871C14.081 26.1494 13.0026 27.2618 11.6787 27.2618C10.3557 27.2618 9.27637 26.1494 9.27637 24.7871C9.27637 23.423 10.3557 22.3115 11.6787 22.3115Z" fill="#0075B1"/>
<path d="M30.791 22.1995H31.3204V24.5403H34.0609V22.1995H34.5912V27.5213H34.0609V25.0221H31.3204V27.5213H30.791V22.1995ZM40.5389 22.1995H41.1273L43.3947 27.5213H42.8222L42.0567 25.7357H39.5945L38.829 27.5213H38.2565L40.5389 22.1995ZM41.8487 25.253L40.834 22.8114L39.8025 25.253H41.8487ZM46.7939 27.0386L48.1608 22.1995H50.6728V27.0386H51.0307V27.5213H46.5146V27.0386H46.7939ZM50.1434 27.0386V22.6822H48.5534L47.3523 27.0386H50.1434ZM54.8018 22.1995H57.6932V22.6822H55.3312V24.5978H57.6154V25.0796H55.3312V27.0386H57.6932V27.5213H54.8018V22.1995ZM63.7889 24.9787L61.8345 27.5213H61.1786L63.267 24.793L61.1786 22.1995H61.8504C61.9319 22.3004 62.0612 22.4616 62.2373 22.6813C62.4144 22.9019 62.6131 23.1517 62.8351 23.4298C63.0572 23.7079 63.2717 23.9775 63.4778 24.2377C63.6858 24.4989 63.7889 24.6308 63.7889 24.6346V22.1995H64.3192V24.6252L66.2596 22.1995H66.9323L64.8411 24.793L66.9323 27.5213H66.2727L64.3192 24.9787V27.5213H63.7889V24.9787ZM70.5592 22.1995H71.0886V24.5403H73.83V22.1995H74.3594V27.5213H73.83V25.0221H71.0886V27.5213H70.5592V22.1995ZM78.4903 27.5213V22.1995H79.0197V24.3452H80.0157C80.3061 24.3452 80.5619 24.3678 80.7821 24.415C81.0023 24.4602 81.2046 24.5535 81.3883 24.6902C81.7893 24.9844 81.9898 25.3954 81.9898 25.9224C81.9898 26.1939 81.9298 26.4447 81.809 26.6747C81.69 26.9066 81.5185 27.0923 81.2955 27.2328C81.1615 27.3186 81.0201 27.3817 80.8683 27.4223C80.7184 27.4638 80.5657 27.4902 80.4111 27.5005C80.2574 27.5118 80.0813 27.5184 79.8798 27.5213H78.4903ZM82.7262 22.1995H83.2565V27.5213H82.7262V22.1995ZM79.9295 24.8279H79.0197V27.0386H79.7009C79.7374 27.0386 79.7974 27.0395 79.877 27.0424C79.9566 27.0442 80.0176 27.0461 80.0569 27.0461C80.3605 27.0461 80.6078 27.0047 80.8018 26.9217C81.0088 26.8368 81.17 26.7077 81.2862 26.5342C81.4014 26.3608 81.4595 26.159 81.4595 25.9299C81.4595 25.7508 81.4192 25.5802 81.3368 25.4209C81.2562 25.2615 81.1409 25.1352 80.9948 25.0438C80.8542 24.9542 80.7006 24.8948 80.5319 24.8684C80.3623 24.8411 80.1618 24.8279 79.9295 24.8279ZM87.3865 22.1995H90.2779V22.6822H87.9159V24.5978H90.2002V25.0796H87.9159V27.0386H90.2779V27.5213H87.3865V22.1995ZM101.571 24.9721V24.4819H102.207C102.388 24.4819 102.556 24.448 102.711 24.3782C102.867 24.3084 102.99 24.2028 103.083 24.0624C103.177 23.9228 103.223 23.7522 103.223 23.5533C103.223 23.3864 103.182 23.2318 103.103 23.0904C103.022 22.9471 102.912 22.8349 102.772 22.751C102.632 22.6662 102.48 22.6247 102.313 22.6247C102.134 22.6247 101.973 22.6643 101.832 22.7425C101.692 22.8217 101.579 22.9301 101.495 23.0725C101.41 23.2139 101.361 23.3732 101.349 23.5533H100.797C100.797 23.2874 100.862 23.0442 100.991 22.8236C101.121 22.603 101.298 22.4305 101.521 22.3032C101.744 22.1769 101.987 22.1128 102.249 22.1128C102.526 22.1128 102.778 22.1731 103.007 22.2929C103.236 22.4135 103.417 22.5823 103.551 22.8C103.685 23.0169 103.752 23.2667 103.752 23.5458C103.752 23.9558 103.605 24.2867 103.309 24.5403C103.248 24.596 103.162 24.6535 103.05 24.7138C103.182 24.7751 103.297 24.8524 103.393 24.9448C103.55 25.0786 103.671 25.2455 103.759 25.4435C103.846 25.6415 103.889 25.847 103.889 26.061C103.889 26.3466 103.815 26.6078 103.667 26.8463C103.519 27.0838 103.322 27.2714 103.075 27.4091C102.828 27.5467 102.562 27.6146 102.278 27.6146C101.981 27.6146 101.707 27.5477 101.456 27.4129C101.204 27.2771 101.006 27.0895 100.859 26.8463C100.712 26.604 100.639 26.3315 100.639 26.0308H101.204C101.211 26.225 101.261 26.4041 101.352 26.5672C101.445 26.7303 101.572 26.8595 101.733 26.9566C101.893 27.0546 102.07 27.1036 102.264 27.1036C102.465 27.1036 102.648 27.0593 102.814 26.9688C102.981 26.8793 103.113 26.7539 103.21 26.5917C103.31 26.4315 103.358 26.2514 103.358 26.0525C103.358 25.8573 103.31 25.6763 103.213 25.5095C103.116 25.3436 102.985 25.2116 102.819 25.1164C102.653 25.0202 102.472 24.9721 102.278 24.9721H101.571ZM109.594 22.1995H110.181L112.449 27.5213H111.876L111.111 25.7357H108.648L107.883 27.5213H107.31L109.594 22.1995ZM110.903 25.253L109.888 22.8114L108.856 25.253H110.903ZM116.113 22.1995H119.913V27.5213H119.384V22.6822H116.642V27.5213H116.113V22.1995ZM123.85 22.1995H124.38V24.1802C124.38 24.3622 124.423 24.5215 124.507 24.6563C124.592 24.7921 124.709 24.8948 124.856 24.9665C125.004 25.0372 125.168 25.073 125.346 25.073C125.922 25.073 126.446 24.8901 126.92 24.5253V22.1995H127.45V27.5213H126.92V25.0381C126.374 25.3963 125.813 25.5764 125.238 25.5764C125.051 25.5764 124.875 25.5472 124.71 25.4859C124.544 25.4246 124.396 25.3341 124.265 25.2172C124.134 25.0984 124.033 24.958 123.96 24.793C123.888 24.6299 123.85 24.4498 123.85 24.2519V22.1995ZM133.39 22.1995H133.977L136.245 27.5213H135.672L134.907 25.7357H132.446L131.679 27.5213H131.107L133.39 22.1995ZM134.7 25.253L133.684 22.8114L132.653 25.253H134.7ZM144.002 23.5674C143.872 23.3713 143.709 23.2007 143.51 23.0574C143.312 22.916 143.097 22.8085 142.862 22.735C142.629 22.6615 142.393 22.6247 142.155 22.6247C141.765 22.6247 141.4 22.7275 141.059 22.933C140.72 23.1394 140.447 23.4128 140.246 23.756C140.044 24.0991 139.944 24.4602 139.944 24.842C139.944 25.2464 140.047 25.6226 140.253 25.9705C140.458 26.3174 140.735 26.5936 141.082 26.7973C141.429 27.0009 141.799 27.1036 142.191 27.1036C142.545 27.1036 142.888 27.015 143.216 26.8378C143.545 26.6606 143.813 26.4249 144.023 26.1317H144.61C144.457 26.4249 144.256 26.6841 144.003 26.9076C143.752 27.1319 143.469 27.3054 143.155 27.4289C142.841 27.5524 142.52 27.6146 142.191 27.6146C141.809 27.6146 141.45 27.5448 141.113 27.4063C140.775 27.2658 140.478 27.0697 140.222 26.818C139.966 26.5644 139.769 26.2684 139.626 25.9271C139.485 25.5877 139.415 25.2248 139.415 24.842C139.415 24.349 139.537 23.8927 139.783 23.4741C140.028 23.0555 140.362 22.7237 140.78 22.4795C141.199 22.2353 141.656 22.1128 142.148 22.1128C142.721 22.1128 143.229 22.2617 143.673 22.5597C143.859 22.6784 144.042 22.8312 144.221 23.0169C144.4 23.2045 144.523 23.3874 144.59 23.5674H144.002ZM148.825 22.6822H147.616V22.1995H150.564V22.6822H149.354V27.5213H148.825V22.6822ZM158.265 22.1995V27.5213H157.735V22.8415L154.736 27.5213H154.199V22.1995H154.73V26.6134L157.54 22.1995H158.265Z" fill="#0075B1"/>
</svg>
