<svg width="32" height="32" viewBox="0 0 32 32" fill="none" xmlns="http://www.w3.org/2000/svg">
<rect x="0.5" y="0.5" width="31" height="31" rx="15.5" stroke="#707070"/>
<path d="M21.8073 10.8335H10.4739C9.69475 10.8335 9.06433 11.471 9.06433 12.2502L9.05725 20.7502C9.05725 21.5293 9.69475 22.1668 10.4739 22.1668H21.8073C22.5864 22.1668 23.2239 21.5293 23.2239 20.7502V12.2502C23.2239 11.471 22.5864 10.8335 21.8073 10.8335ZM21.5239 13.8439L16.516 16.9747C16.2893 17.1164 15.9918 17.1164 15.7652 16.9747L10.7573 13.8439C10.6862 13.804 10.624 13.7502 10.5744 13.6856C10.5248 13.621 10.4888 13.547 10.4687 13.4681C10.4485 13.3891 10.4445 13.307 10.457 13.2265C10.4695 13.146 10.4982 13.0689 10.5414 12.9998C10.5846 12.9307 10.6413 12.8711 10.7082 12.8246C10.775 12.7781 10.8507 12.7457 10.9304 12.7292C11.0102 12.7128 11.0925 12.7127 11.1723 12.729C11.2521 12.7452 11.3278 12.7775 11.3948 12.8239L16.1406 15.7918L20.8864 12.8239C20.9534 12.7775 21.0291 12.7452 21.1089 12.729C21.1887 12.7127 21.271 12.7128 21.3507 12.7292C21.4305 12.7457 21.5061 12.7781 21.573 12.8246C21.6399 12.8711 21.6966 12.9307 21.7398 12.9998C21.7829 13.0689 21.8116 13.146 21.8241 13.2265C21.8366 13.307 21.8327 13.3891 21.8125 13.4681C21.7923 13.547 21.7564 13.621 21.7067 13.6856C21.6571 13.7502 21.5949 13.804 21.5239 13.8439Z" fill="#707070"/>
</svg>
