<svg width="32" height="32" viewBox="0 0 32 32" fill="none" xmlns="http://www.w3.org/2000/svg">
<rect x="0.5" y="0.5" width="31" height="31" rx="15.5" stroke="#707070"/>
<path d="M18.382 14.1294C18.865 13.6464 19.3445 12.5194 17.332 13.8879C15.452 15.1817 13.5593 16.4569 11.6541 17.7134C11.364 17.8446 11.0503 17.9158 10.732 17.9227C10.4137 17.9296 10.0973 17.8721 9.80172 17.7536C8.59422 17.3914 7.18459 16.9084 7.18459 16.9084C7.18459 16.9084 6.22209 16.3038 7.86972 15.6598C7.86972 15.6598 14.8356 12.8011 17.2515 11.794C18.1772 11.3915 21.3176 10.1035 21.3176 10.1035C21.3176 10.1035 22.7675 9.53913 22.6467 10.9085C22.6065 11.472 22.2845 13.446 21.9625 15.5793C21.4786 18.5989 20.9553 21.9011 20.9553 21.9011C20.9553 21.9011 20.8748 22.8269 20.1906 22.9879C19.4581 22.9755 18.7504 22.7207 18.1781 22.2634C18.0171 22.1426 15.1585 20.3305 14.1111 19.445C14.0045 19.3728 13.918 19.2749 13.8595 19.1603C13.801 19.0457 13.7724 18.9181 13.7764 18.7895C13.7804 18.6609 13.8169 18.5353 13.8824 18.4246C13.948 18.3139 14.0405 18.2215 14.1513 18.1561C15.5879 16.8418 16.9984 15.4993 18.382 14.1294Z" fill="#707070"/>
</svg>
