<svg width="32" height="32" viewBox="0 0 32 32" fill="none" xmlns="http://www.w3.org/2000/svg">
<rect x="0.5" y="0.5" width="31" height="31" rx="15.5" stroke="#707070"/>
<path d="M21.1578 12C20.6941 12 20.3038 12.0903 20.1137 12.7318C19.8589 13.5882 18.7506 15.4697 18.122 16.4122C17.675 17.0833 17.0818 16.6167 17.0459 16.3292C16.9565 15.6041 17.0459 12.8335 17.0459 12.8335C17.0459 12.2886 16.6979 12.0073 16.3135 12.0073H13.4384C12.9672 12.0073 12.73 12.5621 13.4062 12.9675C13.9914 13.3183 14.1494 13.3396 14.1494 13.8342V16.9675C14.1494 17.2354 13.7328 17.5364 13.3864 17.1923C12.8671 16.6779 11.0821 13.037 11.0821 13.037C11.0821 13.037 10.6115 12.0073 9.35487 12.0073H7.38727C7.16936 12.0073 6.87596 12.2808 7.05586 12.6207C7.05586 12.6207 9.19746 17.6345 11.157 19.694C13.1166 21.7534 14.7474 22 14.7474 22H16.4778C16.4778 22 17.0839 22.014 17.0839 21.4124V19.694C17.0571 19.2839 17.6268 18.9741 18.1226 19.4947L19.9478 21.4145C20.398 21.8733 20.9222 22 21.4255 22H23.589C23.9226 22 24.254 21.5863 23.7148 21.0631L21.0908 18.1566C21.0908 18.1566 20.6716 17.7938 21.0309 17.2431C21.3896 16.6914 23.2035 13.269 23.2935 13.037C23.5355 12.5439 23.3679 12.0073 22.7661 12.0073L21.1578 12Z" fill="#707070"/>
</svg>
